<svg xmlns="http://www.w3.org/2000/svg" width="23" height="38" viewBox="0 0 23 38" fill="none"><path d="M11.5 25.3333C8.83126 25.3333 6.27182 24.2953 4.38474 22.4477C2.49765 20.6002 1.4375 18.0943 1.4375 15.4814C1.4375 12.8686 2.49765 10.3627 4.38474 8.51512C6.27182 6.66754 8.83126 5.62958 11.5 5.62958C14.1687 5.62958 16.7282 6.66754 18.6153 8.51512C20.5023 10.3627 21.5625 12.8686 21.5625 15.4814C21.5625 18.0943 20.5023 20.6002 18.6153 22.4477C16.7282 24.2953 14.1687 25.3333 11.5 25.3333ZM11.5 26.7407C14.55 26.7407 17.4751 25.5544 19.6317 23.4429C21.7884 21.3314 23 18.4676 23 15.4814C23 12.4953 21.7884 9.63145 19.6317 7.51993C17.4751 5.40841 14.55 4.22217 11.5 4.22217C8.45001 4.22217 5.52494 5.40841 3.36827 7.51993C1.2116 9.63145 0 12.4953 0 15.4814C0 18.4676 1.2116 21.3314 3.36827 23.4429C5.52494 25.5544 8.45001 26.7407 11.5 26.7407Z" fill="#592D36"></path><path d="M15.7693 11.217L15.7405 11.248L10.7481 17.4758L7.73938 14.5287C7.535 14.3422 7.26468 14.2407 6.98538 14.2455C6.70607 14.2504 6.43958 14.3611 6.24204 14.5545C6.04451 14.7479 5.93137 15.0088 5.92644 15.2823C5.92151 15.5558 6.02519 15.8204 6.21563 16.0205L10.0193 19.7459C10.1217 19.8461 10.2437 19.925 10.378 19.9779C10.5123 20.0309 10.6561 20.0569 10.8009 20.0542C10.9456 20.0516 11.0884 20.0205 11.2206 19.9626C11.3528 19.9048 11.4717 19.8216 11.5703 19.7178L17.3088 12.6948C17.5042 12.494 17.611 12.226 17.6062 11.9487C17.6014 11.6714 17.4853 11.4071 17.283 11.2129C17.0807 11.0188 16.8085 10.9104 16.5253 10.9111C16.242 10.9119 15.9704 11.0218 15.7693 11.217Z" fill="#592D36"></path></svg>