<svg xmlns="http://www.w3.org/2000/svg" width="25" height="25" viewBox="0 0 25 25" fill="none"><mask id="mask0_45_201" style="mask-type:luminance" maskUnits="userSpaceOnUse" x="0" y="0" width="25" height="25"><path d="M24.5 0.770508H0.5V24.7705H24.5V0.770508Z" fill="white"></path></mask><g mask="url(#mask0_45_201)"><path fill-rule="evenodd" clip-rule="evenodd" d="M0.5 12.8375C0.5 18.804 4.83333 23.7649 10.5 24.7705V16.1038H7.5V12.7705H10.5V10.1038C10.5 7.10383 12.4333 5.43717 15.1667 5.43717C16.0333 5.43717 16.9667 5.5705 17.8333 5.70383V8.7705H16.3C14.8333 8.7705 14.5 9.50383 14.5 10.4372V12.7705H17.7L17.1667 16.1038H14.5V24.7705C20.1667 23.7649 24.5 18.804 24.5 12.8375C24.5 6.20068 19.1 0.770508 12.5 0.770508C5.9 0.770508 0.5 6.20068 0.5 12.8375Z" fill="#F6F5F0"></path></g></svg>