<svg xmlns="http://www.w3.org/2000/svg" width="25" height="25" viewBox="0 0 25 25" fill="none"><g clip-path="url(#clip0_69_301)"><mask id="mask0_69_301" style="mask-type:luminance" maskUnits="userSpaceOnUse" x="0" y="0" width="25" height="25"><path d="M24.5 0.5H0.5V24.5H24.5V0.5Z" fill="white"></path></mask><g mask="url(#mask0_69_301)"><path fill-rule="evenodd" clip-rule="evenodd" d="M0.5 12.567C0.5 18.5335 4.83333 23.4944 10.5 24.5V15.8333H7.5V12.5H10.5V9.83332C10.5 6.83332 12.4333 5.16666 15.1667 5.16666C16.0333 5.16666 16.9667 5.29999 17.8333 5.43332V8.49999H16.3C14.8333 8.49999 14.5 9.23332 14.5 10.1667V12.5H17.7L17.1667 15.8333H14.5V24.5C20.1667 23.4944 24.5 18.5335 24.5 12.567C24.5 5.93017 19.1 0.5 12.5 0.5C5.9 0.5 0.5 5.93017 0.5 12.567Z" fill="#592D36"></path></g></g><defs><clipPath id="clip0_69_301"><rect width="24" height="24" fill="white" transform="translate(0.5 0.5)"></rect></clipPath></defs></svg>