<svg xmlns="http://www.w3.org/2000/svg" width="24" height="25" viewBox="0 0 24 25" fill="none"><path fill-rule="evenodd" clip-rule="evenodd" d="M7.46494 1.566C8.63828 1.51222 9.01228 1.5 12 1.5C14.9883 1.5 15.3617 1.51283 16.5344 1.566C17.7059 1.61917 18.5059 1.80556 19.2056 2.0775C19.9395 2.35381 20.6043 2.78674 21.1538 3.34617C21.7133 3.8956 22.1463 4.56046 22.4225 5.29439C22.6944 5.99411 22.8802 6.79406 22.934 7.96494C22.9878 9.13828 23 9.51228 23 12.5C23 15.4877 22.9872 15.8617 22.934 17.0351C22.8808 18.2059 22.6944 19.0059 22.4225 19.7056C22.1414 20.4286 21.7649 21.0427 21.1538 21.6538C20.6044 22.2133 19.9395 22.6463 19.2056 22.9225C18.5059 23.1944 17.7059 23.3802 16.5351 23.434C15.3617 23.4878 14.9877 23.5 12 23.5C9.01228 23.5 8.63828 23.4872 7.46494 23.434C6.29406 23.3808 5.49411 23.1944 4.79439 22.9225C4.07144 22.6414 3.45728 22.2649 2.84617 21.6538C2.28664 21.1044 1.85368 20.4395 1.5775 19.7056C1.30556 19.0059 1.11978 18.2059 1.066 17.0351C1.01222 15.8617 1 15.4883 1 12.5C1 9.51167 1.01283 9.13828 1.066 7.96556C1.11917 6.79406 1.30556 5.99411 1.5775 5.29439C1.85381 4.56051 2.28674 3.89568 2.84617 3.34617C3.39559 2.78664 4.06045 2.35368 4.79439 2.0775C5.49411 1.80556 6.29406 1.61978 7.46494 1.566ZM16.4452 3.546C15.2853 3.49344 14.937 3.48183 12 3.48183C9.063 3.48183 8.71467 3.49344 7.55478 3.546C6.48228 3.59489 5.89989 3.77394 5.51244 3.92489C4.99911 4.12411 4.63244 4.36244 4.24744 4.74744C3.86306 5.13244 3.62411 5.49911 3.42489 6.01244C3.27394 6.39989 3.09489 6.98228 3.046 8.05478C2.99344 9.21467 2.98183 9.563 2.98183 12.5C2.98183 15.437 2.99344 15.7853 3.046 16.9452C3.09489 18.0177 3.27394 18.6001 3.42489 18.9876C3.60111 19.4654 3.88219 19.8976 4.24744 20.2526C4.60234 20.6178 5.03461 20.8989 5.51244 21.0751C5.89989 21.2261 6.48228 21.4051 7.55478 21.454C8.71467 21.5066 9.06239 21.5182 12 21.5182C14.9376 21.5182 15.2853 21.5066 16.4452 21.454C17.5177 21.4051 18.1001 21.2261 18.4876 21.0751C19.0009 20.8759 19.3676 20.6376 19.7526 20.2526C20.1178 19.8977 20.3989 19.4654 20.5751 18.9876C20.7261 18.6001 20.9051 18.0177 20.954 16.9452C21.0066 15.7853 21.0182 15.437 21.0182 12.5C21.0182 9.563 21.0066 9.21467 20.954 8.05478C20.9051 6.98228 20.7261 6.39989 20.5751 6.01244C20.3759 5.49911 20.1376 5.13244 19.7526 4.74744C19.3676 4.36306 19.0009 4.12411 18.4876 3.92489C18.1001 3.77394 17.5177 3.59489 16.4452 3.546ZM10.5955 15.8909C11.0408 16.0754 11.518 16.1703 12 16.1703C12.9735 16.1703 13.907 15.7836 14.5953 15.0953C15.2837 14.407 15.6704 13.4734 15.6704 12.5C15.6704 11.5266 15.2837 10.593 14.5953 9.90468C13.907 9.21636 12.9735 8.82966 12 8.82966C11.518 8.82966 11.0408 8.9246 10.5955 9.10905C10.1501 9.2935 9.74553 9.56385 9.40471 9.90468C9.06389 10.2455 8.79353 10.6501 8.60908 11.0954C8.42463 11.5407 8.3297 12.018 8.3297 12.5C8.3297 12.982 8.42463 13.4593 8.60908 13.9046C8.79353 14.3499 9.06389 14.7545 9.40471 15.0953C9.74553 15.4361 10.1501 15.7065 10.5955 15.8909ZM8.00205 8.50201C9.06238 7.44168 10.5005 6.84599 12 6.84599C13.4996 6.84599 14.9377 7.44168 15.998 8.50201C17.0583 9.56234 17.654 11.0005 17.654 12.5C17.654 13.9995 17.0583 15.4376 15.998 16.498C14.9377 17.5583 13.4996 18.154 12 18.154C10.5005 18.154 9.06238 17.5583 8.00205 16.498C6.94172 15.4376 6.34603 13.9995 6.34603 12.5C6.34603 11.0005 6.94172 9.56234 8.00205 8.50201ZM18.9077 7.68838C19.1583 7.43773 19.2991 7.09779 19.2991 6.74333C19.2991 6.38886 19.1583 6.04892 18.9077 5.79828C18.657 5.54764 18.3171 5.40683 17.9626 5.40683C17.6082 5.40683 17.2682 5.54764 17.0176 5.79828C16.7669 6.04892 16.6261 6.38886 16.6261 6.74333C16.6261 7.09779 16.7669 7.43773 17.0176 7.68838C17.2682 7.93902 17.6082 8.07983 17.9626 8.07983C18.3171 8.07983 18.657 7.93902 18.9077 7.68838Z" fill="#592D36"></path></svg>