<svg xmlns="http://www.w3.org/2000/svg" width="25" height="25" viewBox="0 0 25 25" fill="none"><path fill-rule="evenodd" clip-rule="evenodd" d="M7.96494 1.83651C9.13828 1.78273 9.51228 1.77051 12.5 1.77051C15.4883 1.77051 15.8617 1.78334 17.0344 1.83651C18.2059 1.88968 19.0059 2.07607 19.7056 2.34801C20.4395 2.62432 21.1043 3.05725 21.6538 3.61668C22.2133 4.16611 22.6463 4.83097 22.9225 5.5649C23.1944 6.26462 23.3802 7.06457 23.434 8.23545C23.4878 9.40879 23.5 9.78279 23.5 12.7705C23.5 15.7582 23.4872 16.1322 23.434 17.3056C23.3808 18.4764 23.1944 19.2764 22.9225 19.9761C22.6414 20.6991 22.2649 21.3132 21.6538 21.9243C21.1044 22.4838 20.4395 22.9168 19.7056 23.193C19.0059 23.4649 18.2059 23.6507 17.0351 23.7045C15.8617 23.7583 15.4877 23.7705 12.5 23.7705C9.51228 23.7705 9.13828 23.7577 7.96494 23.7045C6.79406 23.6513 5.99411 23.4649 5.29439 23.193C4.57144 22.9119 3.95728 22.5354 3.34617 21.9243C2.78664 21.3749 2.35368 20.71 2.0775 19.9761C1.80556 19.2764 1.61978 18.4764 1.566 17.3056C1.51222 16.1322 1.5 15.7588 1.5 12.7705C1.5 9.78218 1.51283 9.40879 1.566 8.23607C1.61917 7.06457 1.80556 6.26462 2.0775 5.5649C2.35381 4.83102 2.78674 4.16619 3.34617 3.61668C3.89559 3.05715 4.56045 2.62419 5.29439 2.34801C5.99411 2.07607 6.79406 1.89029 7.96494 1.83651ZM16.9452 3.81651C15.7853 3.76395 15.437 3.75234 12.5 3.75234C9.563 3.75234 9.21467 3.76395 8.05478 3.81651C6.98228 3.8654 6.39989 4.04445 6.01244 4.1954C5.49911 4.39462 5.13244 4.63295 4.74744 5.01795C4.36306 5.40295 4.12411 5.76962 3.92489 6.28295C3.77394 6.6704 3.59489 7.25279 3.546 8.32529C3.49344 9.48518 3.48183 9.83351 3.48183 12.7705C3.48183 15.7075 3.49344 16.0558 3.546 17.2157C3.59489 18.2882 3.77394 18.8706 3.92489 19.2581C4.10111 19.7359 4.38219 20.1681 4.74744 20.5231C5.10234 20.8883 5.53461 21.1694 6.01244 21.3456C6.39989 21.4966 6.98228 21.6756 8.05478 21.7245C9.21467 21.7771 9.56239 21.7887 12.5 21.7887C15.4376 21.7887 15.7853 21.7771 16.9452 21.7245C18.0177 21.6756 18.6001 21.4966 18.9876 21.3456C19.5009 21.1464 19.8676 20.9081 20.2526 20.5231C20.6178 20.1682 20.8989 19.7359 21.0751 19.2581C21.2261 18.8706 21.4051 18.2882 21.454 17.2157C21.5066 16.0558 21.5182 15.7075 21.5182 12.7705C21.5182 9.83351 21.5066 9.48518 21.454 8.32529C21.4051 7.25279 21.2261 6.6704 21.0751 6.28295C20.8759 5.76962 20.6376 5.40295 20.2526 5.01795C19.8676 4.63357 19.5009 4.39462 18.9876 4.1954C18.6001 4.04445 18.0177 3.8654 16.9452 3.81651ZM11.0955 16.1614C11.5408 16.3459 12.018 16.4408 12.5 16.4408C13.4735 16.4408 14.407 16.0541 15.0953 15.3658C15.7837 14.6775 16.1704 13.7439 16.1704 12.7705C16.1704 11.7971 15.7837 10.8635 15.0953 10.1752C14.407 9.48687 13.4735 9.10017 12.5 9.10017C12.018 9.10017 11.5408 9.19511 11.0955 9.37956C10.6501 9.56401 10.2455 9.83436 9.90471 10.1752C9.56389 10.516 9.29353 10.9206 9.10908 11.3659C8.92463 11.8112 8.8297 12.2885 8.8297 12.7705C8.8297 13.2525 8.92463 13.7298 9.10908 14.1751C9.29353 14.6204 9.56389 15.025 9.90471 15.3658C10.2455 15.7066 10.6501 15.977 11.0955 16.1614ZM8.50205 8.77252C9.56238 7.71219 11.0005 7.1165 12.5 7.1165C13.9996 7.1165 15.4377 7.71219 16.498 8.77252C17.5583 9.83285 18.154 11.271 18.154 12.7705C18.154 14.27 17.5583 15.7081 16.498 16.7685C15.4377 17.8288 13.9996 18.4245 12.5 18.4245C11.0005 18.4245 9.56238 17.8288 8.50205 16.7685C7.44172 15.7081 6.84603 14.27 6.84603 12.7705C6.84603 11.271 7.44172 9.83285 8.50205 8.77252ZM19.4077 7.95889C19.6583 7.70824 19.7991 7.3683 19.7991 7.01384C19.7991 6.65937 19.6583 6.31943 19.4077 6.06879C19.157 5.81815 18.8171 5.67734 18.4626 5.67734C18.1082 5.67734 17.7682 5.81815 17.5176 6.06879C17.2669 6.31943 17.1261 6.65937 17.1261 7.01384C17.1261 7.3683 17.2669 7.70824 17.5176 7.95889C17.7682 8.20953 18.1082 8.35034 18.4626 8.35034C18.8171 8.35034 19.157 8.20953 19.4077 7.95889Z" fill="#F6F5F0"></path></svg>