<svg xmlns="http://www.w3.org/2000/svg" width="26" height="25" viewBox="0 0 26 25" fill="none"><g clip-path="url(#clip0_69_570)"><path d="M24 7.33333V16.6667C24 19.8883 21.3883 22.5 18.1667 22.5H8.83333C5.61168 22.5 3 19.8883 3 16.6667V7.33333C3 4.11168 5.61168 1.5 8.83333 1.5H18.1667C21.3883 1.5 24 4.11168 24 7.33333Z" stroke="#592D36" stroke-width="2.5" stroke-linecap="round" stroke-linejoin="round"></path><path d="M11.3 11.5C9.47747 11.5 8 13.0669 8 15C8 16.933 9.47747 18.5 11.3 18.5C13.1226 18.5 14.6 16.933 14.6 15V4.5C14.9666 5.66667 16.36 8 19 8" stroke="#592D36" stroke-width="2.5" stroke-linecap="round" stroke-linejoin="round"></path></g><defs><clipPath id="clip0_69_570"><rect width="26" height="24" fill="white" transform="translate(0 0.5)"></rect></clipPath></defs></svg>