<svg xmlns="http://www.w3.org/2000/svg" width="23" height="23" viewBox="0 0 23 23" fill="none"><path fill-rule="evenodd" clip-rule="evenodd" d="M6.96494 0.566C8.13828 0.51222 8.51228 0.5 11.5 0.5C14.4883 0.5 14.8617 0.51283 16.0344 0.566C17.2059 0.61917 18.0059 0.80556 18.7056 1.0775C19.4395 1.35381 20.1043 1.78674 20.6538 2.34617C21.2133 2.8956 21.6463 3.56046 21.9225 4.29439C22.1944 4.99411 22.3802 5.79406 22.434 6.96494C22.4878 8.13828 22.5 8.51228 22.5 11.5C22.5 14.4877 22.4872 14.8617 22.434 16.0351C22.3808 17.2059 22.1944 18.0059 21.9225 18.7056C21.6414 19.4286 21.2649 20.0427 20.6538 20.6538C20.1044 21.2133 19.4395 21.6463 18.7056 21.9225C18.0059 22.1944 17.2059 22.3802 16.0351 22.434C14.8617 22.4878 14.4877 22.5 11.5 22.5C8.51228 22.5 8.13828 22.4872 6.96494 22.434C5.79406 22.3808 4.99411 22.1944 4.29439 21.9225C3.57144 21.6414 2.95728 21.2649 2.34617 20.6538C1.78664 20.1044 1.35368 19.4395 1.0775 18.7056C0.80556 18.0059 0.61978 17.2059 0.566 16.0351C0.51222 14.8617 0.5 14.4883 0.5 11.5C0.5 8.51167 0.51283 8.13828 0.566 6.96556C0.61917 5.79406 0.80556 4.99411 1.0775 4.29439C1.35381 3.56051 1.78674 2.89568 2.34617 2.34617C2.89559 1.78664 3.56045 1.35368 4.29439 1.0775C4.99411 0.80556 5.79406 0.61978 6.96494 0.566ZM15.9452 2.546C14.7853 2.49344 14.437 2.48183 11.5 2.48183C8.563 2.48183 8.21467 2.49344 7.05478 2.546C5.98228 2.59489 5.39989 2.77394 5.01244 2.92489C4.49911 3.12411 4.13244 3.36244 3.74744 3.74744C3.36306 4.13244 3.12411 4.49911 2.92489 5.01244C2.77394 5.39989 2.59489 5.98228 2.546 7.05478C2.49344 8.21467 2.48183 8.563 2.48183 11.5C2.48183 14.437 2.49344 14.7853 2.546 15.9452C2.59489 17.0177 2.77394 17.6001 2.92489 17.9876C3.10111 18.4654 3.38219 18.8976 3.74744 19.2526C4.10234 19.6178 4.53461 19.8989 5.01244 20.0751C5.39989 20.2261 5.98228 20.4051 7.05478 20.454C8.21467 20.5066 8.56239 20.5182 11.5 20.5182C14.4376 20.5182 14.7853 20.5066 15.9452 20.454C17.0177 20.4051 17.6001 20.2261 17.9876 20.0751C18.5009 19.8759 18.8676 19.6376 19.2526 19.2526C19.6178 18.8977 19.8989 18.4654 20.0751 17.9876C20.2261 17.6001 20.4051 17.0177 20.454 15.9452C20.5066 14.7853 20.5182 14.437 20.5182 11.5C20.5182 8.563 20.5066 8.21467 20.454 7.05478C20.4051 5.98228 20.2261 5.39989 20.0751 5.01244C19.8759 4.49911 19.6376 4.13244 19.2526 3.74744C18.8676 3.36306 18.5009 3.12411 17.9876 2.92489C17.6001 2.77394 17.0177 2.59489 15.9452 2.546ZM10.0955 14.8909C10.5408 15.0754 11.018 15.1703 11.5 15.1703C12.4735 15.1703 13.407 14.7836 14.0953 14.0953C14.7837 13.407 15.1704 12.4734 15.1704 11.5C15.1704 10.5266 14.7837 9.593 14.0953 8.90468C13.407 8.21636 12.4735 7.82966 11.5 7.82966C11.018 7.82966 10.5408 7.9246 10.0955 8.10905C9.6501 8.2935 9.24553 8.56385 8.90471 8.90468C8.56389 9.2455 8.29353 9.6501 8.10908 10.0954C7.92463 10.5407 7.8297 11.018 7.8297 11.5C7.8297 11.982 7.92463 12.4593 8.10908 12.9046C8.29353 13.3499 8.56389 13.7545 8.90471 14.0953C9.24553 14.4361 9.6501 14.7065 10.0955 14.8909ZM7.50205 7.50201C8.56238 6.44168 10.0005 5.84599 11.5 5.84599C12.9996 5.84599 14.4377 6.44168 15.498 7.50201C16.5583 8.56234 17.154 10.0005 17.154 11.5C17.154 12.9995 16.5583 14.4376 15.498 15.498C14.4377 16.5583 12.9996 17.154 11.5 17.154C10.0005 17.154 8.56238 16.5583 7.50205 15.498C6.44172 14.4376 5.84603 12.9995 5.84603 11.5C5.84603 10.0005 6.44172 8.56234 7.50205 7.50201ZM18.4077 6.68838C18.6583 6.43773 18.7991 6.09779 18.7991 5.74333C18.7991 5.38886 18.6583 5.04892 18.4077 4.79828C18.157 4.54764 17.8171 4.40683 17.4626 4.40683C17.1082 4.40683 16.7682 4.54764 16.5176 4.79828C16.2669 5.04892 16.1261 5.38886 16.1261 5.74333C16.1261 6.09779 16.2669 6.43773 16.5176 6.68838C16.7682 6.93902 17.1082 7.07983 17.4626 7.07983C17.8171 7.07983 18.157 6.93902 18.4077 6.68838Z" fill="#592D36"></path></svg>