<svg xmlns="http://www.w3.org/2000/svg" width="29" height="25" viewBox="0 0 29 25" fill="none"><path fill-rule="evenodd" clip-rule="evenodd" d="M13.0338 7.62826C12.7486 7.46143 12.3934 7.45707 12.104 7.61682C11.8146 7.77658 11.6357 8.07576 11.6357 8.4V15.6C11.6357 15.9243 11.8146 16.2234 12.104 16.3831C12.3934 16.543 12.7486 16.5385 13.0338 16.3717L19.1876 12.7717C19.4656 12.6091 19.6357 12.3161 19.6357 12C19.6357 11.6839 19.4656 11.3909 19.1876 11.2283L13.0338 7.62826ZM16.9186 12L13.4819 14.0105V9.98953L16.9186 12Z" fill="#592D36"></path><path fill-rule="evenodd" clip-rule="evenodd" d="M21.6884 2.74706C17.3266 2.41765 12.9448 2.41765 8.58315 2.74706L5.66456 2.96749C3.88978 3.10153 2.43786 4.38561 2.14447 6.08065C1.46617 9.99971 1.46617 14.0003 2.14447 17.9194C2.43786 19.6144 3.88978 20.8985 5.66456 21.0325L8.58315 21.2529C12.9448 21.5824 17.3266 21.5824 21.6884 21.2529L24.607 21.0325C26.3817 20.8985 27.8336 19.6144 28.1271 17.9194C28.8053 14.0003 28.8053 9.99971 28.1271 6.08065C27.8336 4.38561 26.3817 3.10153 24.607 2.96749L21.6884 2.74706ZM8.73555 4.62743C12.9959 4.30567 17.2756 4.30567 21.536 4.62743L24.4546 4.84786C25.3346 4.91432 26.0545 5.55101 26.2 6.39148C26.8426 10.1047 26.8426 13.8953 26.2 17.6086C26.0545 18.449 25.3346 19.0856 24.4546 19.1522L21.536 19.3726C17.2756 19.6944 12.9958 19.6944 8.73555 19.3726L5.81696 19.1522C4.93695 19.0856 4.21703 18.449 4.07156 17.6086C3.42888 13.8953 3.42888 10.1047 4.07156 6.39148C4.21703 5.55101 4.93695 4.91432 5.81696 4.84786L8.73555 4.62743Z" fill="#592D36"></path></svg>